<?xml version="1.0" standalone="no"?>
<!DOCTYPE svg PUBLIC "-//W3C//DTD SVG 20010904//EN"
 "http://www.w3.org/TR/2001/REC-SVG-20010904/DTD/svg10.dtd">
<svg version="1.0" xmlns="http://www.w3.org/2000/svg"
 width="1080.000000pt" height="1080.000000pt" viewBox="0 0 1080.000000 1080.000000"
 preserveAspectRatio="xMidYMid meet">
<metadata>
Created by potrace 1.14, written by Peter Selinger 2001-2017
</metadata>
<g transform="translate(0.000000,1080.000000) scale(0.100000,-0.100000)"
fill="#000000" stroke="none">
<path d="M5728 9655 c-2 -1 -33 -5 -71 -9 -37 -3 -77 -8 -90 -11 -12 -2 -35
-7 -52 -9 -16 -3 -43 -8 -60 -11 -16 -3 -39 -8 -50 -10 -58 -10 -154 -38 -151
-44 2 -3 -6 -6 -17 -7 -40 -2 -82 -13 -85 -24 -2 -5 -8 -7 -13 -4 -6 3 -15 2
-22 -4 -7 -5 -37 -17 -67 -26 -67 -22 -202 -85 -212 -100 -4 -6 -8 -7 -8 -3 0
11 -100 -45 -100 -56 0 -5 -4 -6 -9 -3 -5 3 -14 -1 -21 -9 -7 -8 -16 -15 -21
-15 -20 0 -178 -113 -172 -123 3 -5 2 -7 -4 -4 -14 9 -55 -22 -47 -35 4 -7 2
-8 -4 -4 -7 4 -22 -2 -34 -13 -12 -12 -26 -21 -30 -21 -5 0 -6 -4 -3 -10 3 -5
0 -10 -7 -10 -23 0 -181 -157 -173 -171 6 -8 4 -10 -4 -4 -8 5 -24 -5 -42 -26
-16 -19 -34 -38 -39 -44 -46 -46 -210 -268 -210 -284 0 -5 -4 -11 -9 -13 -8
-3 -91 -145 -118 -203 -8 -16 -21 -41 -28 -55 -8 -14 -12 -32 -9 -40 3 -8 2
-11 -2 -7 -10 10 -46 -73 -39 -90 2 -8 1 -12 -4 -8 -8 4 -27 -37 -35 -78 -4
-17 -16 -50 -26 -68 -5 -10 -4 -21 3 -29 9 -10 9 -11 0 -6 -8 4 -16 -7 -22
-31 -6 -20 -8 -39 -6 -42 3 -2 0 -10 -6 -18 -6 -7 -8 -13 -3 -13 5 0 -1 -6
-12 -14 -15 -11 -247 -74 -369 -101 -20 -4 -1677 -417 -2110 -526 -132 -33
-247 -61 -255 -63 -151 -36 -219 -84 -272 -193 l-23 -48 -2 -1675 c-2 -1654
-2 -1676 18 -1727 25 -65 96 -144 152 -171 24 -11 158 -46 298 -77 140 -30
283 -63 319 -71 36 -9 76 -18 90 -20 14 -2 43 -8 65 -13 94 -22 141 -33 160
-37 40 -8 61 -12 105 -23 25 -6 97 -22 160 -36 63 -14 124 -27 135 -30 31 -8
567 -126 595 -131 14 -3 45 -10 70 -15 25 -6 54 -13 65 -15 11 -2 31 -6 45
-10 14 -3 43 -10 65 -14 22 -5 345 -76 717 -159 373 -83 688 -153 700 -155 13
-2 187 -41 388 -86 201 -45 372 -83 380 -85 8 -2 59 -13 114 -25 54 -12 106
-23 115 -25 24 -5 200 -45 246 -55 22 -6 164 -37 315 -71 151 -33 284 -62 295
-65 11 -2 34 -7 50 -10 17 -2 48 -10 70 -15 22 -6 49 -13 60 -15 11 -2 31 -6
45 -9 14 -3 34 -7 45 -10 11 -2 124 -27 250 -55 215 -49 383 -86 430 -95 11
-3 112 -25 225 -51 113 -25 216 -48 230 -50 14 -3 72 -16 130 -29 58 -13 116
-26 130 -29 14 -2 167 -36 340 -75 173 -39 329 -74 345 -77 17 -2 57 -11 90
-19 57 -14 226 -52 270 -61 35 -7 58 -12 125 -28 36 -8 76 -17 90 -20 14 -3
79 -17 145 -31 66 -15 129 -28 139 -31 11 -2 51 -11 90 -20 39 -9 98 -22 131
-29 33 -8 103 -24 155 -35 166 -38 276 -15 362 78 22 24 50 65 61 90 l22 47 3
1304 c3 1422 5 1357 -53 1446 -24 36 -117 114 -340 285 -71 55 -1496 1164
-1525 1187 -8 6 -82 64 -165 128 -82 64 -152 119 -154 121 -2 2 5 20 15 41 10
21 17 41 16 46 -1 4 2 7 7 7 15 0 139 266 144 310 1 8 6 18 11 21 5 4 9 20 10
37 0 17 4 28 9 25 7 -4 11 15 10 45 -1 7 2 11 5 7 3 -3 15 27 27 67 14 49 17
75 10 80 -7 5 -6 8 1 8 10 0 20 38 41 150 2 13 6 26 9 29 2 2 -2 11 -9 19 -9
13 -9 14 1 8 8 -5 12 2 12 23 0 17 0 32 1 34 11 30 15 96 7 111 -7 13 -7 16 1
12 8 -5 11 18 12 73 2 222 0 273 -11 266 -5 -3 -10 -2 -10 4 0 5 4 11 8 13 8
3 -8 166 -22 223 -2 11 -5 30 -5 43 -1 16 -5 21 -13 16 -10 -5 -10 -4 -2 5 11
12 6 44 -14 101 -3 8 -7 24 -9 34 -2 11 -9 26 -16 35 -7 8 -7 12 -1 8 7 -4 5
12 -4 41 -9 26 -19 48 -23 50 -4 2 -5 11 -2 21 3 10 0 22 -6 25 -6 4 -11 18
-11 32 0 13 -4 24 -8 24 -5 0 -9 6 -9 13 0 6 -11 35 -23 62 -13 28 -24 52 -25
55 -19 52 -29 70 -38 70 -6 0 -8 3 -4 6 9 10 -98 204 -162 294 -76 106 -135
180 -144 180 -6 0 -8 3 -4 6 10 10 -167 195 -272 284 -29 25 -62 53 -73 62
-11 10 -25 15 -31 11 -6 -3 -7 -1 -3 5 4 6 -4 16 -16 23 -13 7 -25 15 -28 18
-23 27 -257 172 -281 174 -10 1 -16 3 -13 6 6 7 -175 92 -198 94 -10 1 -18 4
-18 8 0 15 -42 20 -58 7 -15 -12 -16 -11 -3 5 12 15 11 17 -6 17 -10 0 -23 4
-28 9 -6 6 -21 12 -35 15 -14 2 -45 12 -70 20 -24 9 -50 14 -56 12 -7 -3 -14
-1 -16 5 -3 10 -46 21 -90 23 -14 0 -24 4 -21 8 2 5 -4 8 -14 9 -10 0 -31 3
-48 6 -16 3 -46 6 -65 7 -19 0 -37 4 -40 7 -11 13 -123 22 -327 24 -116 2
-213 2 -215 0z m482 -49 c0 -2 -7 -7 -16 -10 -8 -3 -12 -2 -9 4 6 10 25 14 25
6z m-925 -94 c-3 -3 -11 0 -18 7 -9 10 -8 11 6 5 10 -3 15 -9 12 -12z m-880
-471 c3 -5 2 -12 -3 -15 -5 -3 -9 1 -9 9 0 17 3 19 12 6z m1615 5 c0 -2 -8
-10 -17 -17 -16 -13 -17 -12 -4 4 13 16 21 21 21 13z m-730 -160 c0 -2 -7 -7
-16 -10 -8 -3 -12 -2 -9 4 6 10 25 14 25 6z m1435 -5 c3 -5 2 -12 -3 -15 -5
-3 -9 1 -9 9 0 17 3 19 12 6z m649 -79 c2 -4 -4 -8 -14 -8 -10 0 -16 4 -14 8
3 4 9 8 14 8 5 0 11 -4 14 -8z m-2571 -77 c-3 -9 -8 -14 -10 -11 -3 3 -2 9 2
15 9 16 15 13 8 -4z m1598 -18 c-10 -9 -11 -8 -5 6 3 10 9 15 12 12 3 -3 0
-11 -7 -18z m-957 -65 c3 -5 -1 -9 -9 -9 -8 0 -12 4 -9 9 3 4 7 8 9 8 2 0 6
-4 9 -8z m1127 -159 c13 -16 12 -17 -3 -4 -10 7 -18 15 -18 17 0 8 8 3 21 -13z
m79 -227 c0 -2 -8 -10 -17 -17 -16 -13 -17 -12 -4 4 13 16 21 21 21 13z m1035
-5 c3 -5 2 -12 -3 -15 -5 -3 -9 1 -9 9 0 17 3 19 12 6z m-2882 -86 c-3 -9 -8
-14 -10 -11 -3 3 -2 9 2 15 9 16 15 13 8 -4z m3047 11 c0 -2 -8 -10 -17 -17
-16 -13 -17 -12 -4 4 13 16 21 21 21 13z m-4005 -24 c-3 -3 -11 0 -18 7 -9 10
-8 11 6 5 10 -3 15 -9 12 -12z m480 0 c-3 -3 -11 0 -18 7 -9 10 -8 11 6 5 10
-3 15 -9 12 -12z m3596 -245 c-10 -9 -11 -8 -5 6 3 10 9 15 12 12 3 -3 0 -11
-7 -18z m-301 -141 c0 -2 -8 -10 -17 -17 -16 -13 -17 -12 -4 4 13 16 21 21 21
13z m-1770 -60 c0 -2 -7 -7 -16 -10 -8 -3 -12 -2 -9 4 6 10 25 14 25 6z m877
-101 c0 -8 -4 -12 -9 -9 -5 3 -6 10 -3 15 9 13 12 11 12 -6z m-156 -82 c13
-16 12 -17 -3 -4 -10 7 -18 15 -18 17 0 8 8 3 21 -13z m-206 -171 c-3 -3 -11
0 -18 7 -9 10 -8 11 6 5 10 -3 15 -9 12 -12z m285 -56 c0 -2 -8 -10 -17 -17
-16 -13 -17 -12 -4 4 13 16 21 21 21 13z m1364 -734 c2 -4 -4 -8 -14 -8 -10 0
-16 4 -14 8 3 4 9 8 14 8 5 0 11 -4 14 -8z m70 -240 c3 -5 -1 -9 -9 -9 -8 0
-12 4 -9 9 3 4 7 8 9 8 2 0 6 -4 9 -8z"/>
</g>
</svg>
